<svg xmlns="http://www.w3.org/2000/svg" viewBox="0 0 64 64">
  <!-- White circle with navy border so it works on any bg -->
  <circle cx="32" cy="32" r="31" fill="#ffffff" stroke="#e0e6ef" stroke-width="1"/>
  <!-- Polymer chain scaled to fit the 54×54 area inside the circle (padding 5px) -->
  <g transform="translate(5,5) scale(0.054)"
     stroke-linecap="round" stroke-linejoin="round" stroke-width="70">
    <!-- Backbone chains — navy -->
    <path fill="none" stroke="#1e3a5f"
      d="M100 200c150-50 300-100 421.429-68.571C704.945 178.927 894.769 164.709 950 150
         M50 450c182.696-142.115 350-88.4 450-38.4C589.443 456.32 850 450 950 550
         M50 800c150 100 250 100 350 50s150-50 227.143-92.857C724.877 702.846 900 750 950 700"/>
    <!-- Cross-links — amber -->
    <path fill="none" stroke="#f5a623"
      d="M344.286 138.571c150 50 55.326 255.413 144.285 267.143
         m-232.857-32.857C300 450 340.797 708.987 150 850
         m667.143-677.143C750 250 650 400 700 450
         m-153.571-19.286C600 500 550 700 567.857 772.143"/>
  </g>
</svg>
